<svg width="66" height="63" viewBox="0 0 66 63" fill="none" xmlns="http://www.w3.org/2000/svg">
<g filter="url(#filter0_d)">
<path d="M27.5235 26.7023C30.7057 26.7023 33.3747 24.0333 33.3747 20.8511C33.3747 17.6689 30.7057 15 27.5235 15C24.2387 15 21.6724 17.6689 21.6724 20.8511C21.6724 24.0333 24.2387 26.7023 27.5235 26.7023Z" fill="#9862F5"/>
<path d="M27.8315 28.6526C21.6724 28.6526 15 29.2685 15 36.8647C15 37.1727 15.2053 37.378 15.5133 37.378H40.1497C40.4576 37.378 40.6629 37.1727 40.6629 36.8647C40.6629 29.2685 33.9906 28.6526 27.8315 28.6526Z" fill="#9862F5"/>
<path d="M27.5609 25.0426C29.838 25.0426 31.7478 23.1328 31.7478 20.8557C31.7478 18.5785 29.838 16.6687 27.5609 16.6687C25.2103 16.6687 23.3739 18.5785 23.3739 20.8557C23.3739 23.1328 25.2103 25.0426 27.5609 25.0426Z" fill="url(#paint0_linear)"/>
<path d="M28.026 29.6948C23.1133 29.6948 17.7913 30.1546 17.7913 35.8247C17.7913 36.0546 17.955 36.2079 18.2007 36.2079H37.8514C38.0971 36.2079 38.2608 36.0546 38.2608 35.8247C38.2608 30.1546 32.9387 29.6948 28.026 29.6948Z" fill="url(#paint1_linear)"/>
</g>
<defs>
<filter id="filter0_d" x="0" y="0" width="65.6629" height="62.378" filterUnits="userSpaceOnUse" color-interpolation-filters="sRGB">
<feFlood flood-opacity="0" result="BackgroundImageFix"/>
<feColorMatrix in="SourceAlpha" type="matrix" values="0 0 0 0 0 0 0 0 0 0 0 0 0 0 0 0 0 0 127 0" result="hardAlpha"/>
<feOffset dx="5" dy="5"/>
<feGaussianBlur stdDeviation="10"/>
<feColorMatrix type="matrix" values="0 0 0 0 0.215686 0 0 0 0 0.301961 0 0 0 0 0.427451 0 0 0 0.2 0"/>
<feBlend mode="normal" in2="BackgroundImageFix" result="effect1_dropShadow"/>
<feBlend mode="normal" in="SourceGraphic" in2="effect1_dropShadow" result="shape"/>
</filter>
<linearGradient id="paint0_linear" x1="27.5609" y1="16.6687" x2="27.5609" y2="25.0426" gradientUnits="userSpaceOnUse">
<stop stop-color="white" stop-opacity="0.6"/>
<stop offset="1" stop-color="white" stop-opacity="0.1"/>
</linearGradient>
<linearGradient id="paint1_linear" x1="28.026" y1="29.6948" x2="28.026" y2="36.2079" gradientUnits="userSpaceOnUse">
<stop stop-color="white" stop-opacity="0.6"/>
<stop offset="1" stop-color="white" stop-opacity="0.1"/>
</linearGradient>
</defs>
</svg>
