<svg width="11" height="20" viewBox="0 0 11 20" fill="none" xmlns="http://www.w3.org/2000/svg">
<path fill-rule="evenodd" clip-rule="evenodd" d="M3.96447 2.2978C4.90215 1.36012 6.17392 0.833332 7.5 0.833332H10C10.4602 0.833332 10.8333 1.20643 10.8333 1.66667V5C10.8333 5.46024 10.4602 5.83333 10 5.83333H7.5V7.5H10C10.2566 7.5 10.4989 7.61822 10.6568 7.82049C10.8148 8.02275 10.8707 8.28649 10.8085 8.53544L9.97512 11.8688C9.88237 12.2397 9.54906 12.5 9.16667 12.5H7.5V18.3333C7.5 18.7936 7.1269 19.1667 6.66667 19.1667H3.33333C2.8731 19.1667 2.5 18.7936 2.5 18.3333V12.5H0.833333C0.373096 12.5 0 12.1269 0 11.6667V8.33333C0 7.87309 0.373096 7.5 0.833333 7.5H2.5V5.83333C2.5 4.50725 3.02678 3.23548 3.96447 2.2978ZM7.5 2.5C6.61594 2.5 5.7681 2.85119 5.14298 3.47631C4.51786 4.10143 4.16667 4.94928 4.16667 5.83333V8.33333C4.16667 8.79357 3.79357 9.16666 3.33333 9.16666H1.66667V10.8333H3.33333C3.79357 10.8333 4.16667 11.2064 4.16667 11.6667V17.5H5.83333V11.6667C5.83333 11.2064 6.20643 10.8333 6.66667 10.8333H8.51602L8.93269 9.16666H6.66667C6.20643 9.16666 5.83333 8.79357 5.83333 8.33333V5.83333C5.83333 5.3913 6.00893 4.96738 6.32149 4.65482C6.63405 4.34226 7.05797 4.16667 7.5 4.16667H9.16667V2.5H7.5Z" fill="black"/>
</svg>
