<?xml version="1.0" encoding="utf-8"?>
<!-- Generator: Adobe Illustrator 23.0.6, SVG Export Plug-In . SVG Version: 6.00 Build 0)  -->
<svg version="1.1" id="Layer_1" xmlns="http://www.w3.org/2000/svg" xmlns:xlink="http://www.w3.org/1999/xlink" x="0px" y="0px"
	 viewBox="0 0 20 27" style="enable-background:new 0 0 20 27;" xml:space="preserve">
<style type="text/css">
	.st0{fill:#00CDCA;}
	.st1{fill:url(#SVGID_1_);fill-opacity:0.3;}
	.st2{fill:none;stroke:url(#SVGID_2_);stroke-opacity:0.4;}
</style>
<g>
	<path class="st0" d="M9.9,0C4.4,0,0,4.6,0,10.1c0,7.7,7.6,15.2,9.2,16.6C9.5,26.9,9.7,27,10,27s0.5-0.1,0.8-0.3
		c1.5-1.4,9.2-8.9,9.2-16.6C19.9,4.6,15.4,0,9.9,0z M9.9,15.5c-3,0-5.4-2.4-5.4-5.4c0-3,2.4-5.4,5.4-5.4c3,0,5.4,2.4,5.4,5.4
		C15.3,13.1,12.9,15.5,9.9,15.5z"/>
	
		<linearGradient id="SVGID_1_" gradientUnits="userSpaceOnUse" x1="26.479" y1="12.7703" x2="-5.5122" y2="37.5108" gradientTransform="matrix(1 0 0 -1 0 37.8898)">
		<stop  offset="0" style="stop-color:#000000"/>
		<stop  offset="1" style="stop-color:#FFFFFF"/>
	</linearGradient>
	<path class="st1" d="M9.9,0C4.4,0,0,4.6,0,10.1c0,7.7,7.6,15.2,9.2,16.6C9.5,26.9,9.7,27,10,27s0.5-0.1,0.8-0.3
		c1.5-1.4,9.2-8.9,9.2-16.6C19.9,4.6,15.4,0,9.9,0z M9.9,15.5c-3,0-5.4-2.4-5.4-5.4c0-3,2.4-5.4,5.4-5.4c3,0,5.4,2.4,5.4,5.4
		C15.3,13.1,12.9,15.5,9.9,15.5z"/>
	
		<linearGradient id="SVGID_2_" gradientUnits="userSpaceOnUse" x1="-6.0087" y1="36.661" x2="19.8663" y2="18.3655" gradientTransform="matrix(1 0 0 -1 0 37.8898)">
		<stop  offset="0" style="stop-color:#FFFFFF"/>
		<stop  offset="1" style="stop-color:#FFFFFF;stop-opacity:0"/>
	</linearGradient>
	<path class="st2" d="M9.6,26.3L9.6,26.3L9.6,26.3c-0.8-0.7-3.1-2.9-5.2-5.9c-2.1-3-3.9-6.7-3.9-10.4c0-5.3,4.2-9.6,9.4-9.6
		c5.2,0,9.5,4.3,9.6,9.6c0,3.7-1.9,7.4-4,10.4c-2.1,3-4.4,5.2-5.1,5.9l0,0l0,0c-0.1,0.1-0.1,0.1-0.2,0.1c0,0-0.1,0-0.2,0
		s-0.2,0-0.2,0C9.7,26.4,9.7,26.4,9.6,26.3z M4,10.1C4,13.4,6.6,16,9.9,16c3.3,0,5.9-2.6,5.9-5.9c0-3.3-2.6-5.9-5.9-5.9
		C6.6,4.2,4,6.8,4,10.1z"/>
</g>
</svg>
