<svg width="20" height="20" viewBox="0 0 20 20" fill="none" xmlns="http://www.w3.org/2000/svg">
<path fill-rule="evenodd" clip-rule="evenodd" d="M5.83301 2.5C3.99206 2.5 2.49967 3.99238 2.49967 5.83333V14.1667C2.49967 16.0076 3.99206 17.5 5.83301 17.5H14.1663C16.0073 17.5 17.4997 16.0076 17.4997 14.1667V5.83333C17.4997 3.99238 16.0073 2.5 14.1663 2.5H5.83301ZM0.833008 5.83333C0.833008 3.07191 3.07158 0.833332 5.83301 0.833332H14.1663C16.9278 0.833332 19.1663 3.07191 19.1663 5.83333V14.1667C19.1663 16.9281 16.9278 19.1667 14.1663 19.1667H5.83301C3.07158 19.1667 0.833008 16.9281 0.833008 14.1667V5.83333Z" fill="black"/>
<path fill-rule="evenodd" clip-rule="evenodd" d="M10.4025 7.49099C9.88237 7.41386 9.35114 7.5027 8.88439 7.74489C8.41764 7.98708 8.03914 8.37027 7.80272 8.83997C7.56631 9.30967 7.48402 9.84196 7.56756 10.3611C7.6511 10.8803 7.89622 11.3599 8.26805 11.7317C8.63987 12.1035 9.11947 12.3487 9.63864 12.4322C10.1578 12.5157 10.6901 12.4334 11.1598 12.197C11.6295 11.9606 12.0127 11.5821 12.2549 11.1154C12.4971 10.6486 12.5859 10.1174 12.5088 9.59724C12.4301 9.06666 12.1829 8.57546 11.8036 8.19618C11.4243 7.8169 10.9331 7.56967 10.4025 7.49099ZM8.11677 6.26552C8.89468 5.86187 9.78007 5.71379 10.647 5.84235C11.5313 5.97348 12.35 6.38554 12.9821 7.01767C13.6142 7.6498 14.0263 8.46847 14.1574 9.35277C14.286 10.2197 14.1379 11.1051 13.7342 11.883C13.3306 12.6609 12.6919 13.2917 11.9091 13.6858C11.1263 14.0798 10.2391 14.2169 9.37385 14.0777C8.50858 13.9385 7.70924 13.5299 7.08953 12.9102C6.46982 12.2905 6.0613 11.4912 5.92206 10.6259C5.78283 9.76063 5.91998 8.87349 6.314 8.09065C6.70802 7.30782 7.33885 6.66916 8.11677 6.26552Z" fill="black"/>
</svg>
