<?xml version="1.0" encoding="utf-8"?>
<!-- Generator: Adobe Illustrator 23.0.6, SVG Export Plug-In . SVG Version: 6.00 Build 0)  -->
<svg version="1.1" id="Layer_1" xmlns="http://www.w3.org/2000/svg" xmlns:xlink="http://www.w3.org/1999/xlink" x="0px" y="0px"
	 viewBox="0 0 19.2 22" style="enable-background:new 0 0 19.2 22;" xml:space="preserve">
<style type="text/css">
	.st0{fill:#00CDCA;}
	.st1{fill:none;stroke:#3394F4;stroke-width:1.2209;}
	.st2{fill:url(#SVGID_1_);}
</style>
<g>
	<circle class="st0" cx="9.8" cy="12.4" r="1.5"/>
	<path class="st0" d="M9.5,8.8c4,0,7.2-1.6,7.2-4.4H2.3C2.3,7.2,5.6,8.8,9.5,8.8z"/>
	<path class="st1" d="M18.6,1.1c-0.6,4.5-4.4,7.9-9,7.9c-4.6,0-8.4-3.5-9-7.9c0-0.3,0.2-0.5,0.5-0.5h16.9
		C18.4,0.6,18.6,0.9,18.6,1.1z"/>
	<path class="st0" d="M9.6,12.3c-4.9,0-9,3.7-9.6,8.5C-0.1,21.5,0.5,22,1.2,22h16.9c0.7,0,1.2-0.5,1.1-1.2
		C18.6,16,14.5,12.3,9.6,12.3z"/>
	
		<linearGradient id="SVGID_1_" gradientUnits="userSpaceOnUse" x1="9.613" y1="1.2671" x2="9.613" y2="8.4219" gradientTransform="matrix(1 0 0 -1 0 21.8898)">
		<stop  offset="0" style="stop-color:#FFFFFF;stop-opacity:0.6"/>
		<stop  offset="1" style="stop-color:#FFFFFF;stop-opacity:0.1"/>
	</linearGradient>
	<path class="st2" d="M9.6,13.5c-3.3,0-6.1,2.3-6.9,5.3c-0.3,1,0.6,1.8,1.6,1.8h10.6c1,0,1.9-0.8,1.6-1.8
		C15.7,15.7,12.9,13.5,9.6,13.5z"/>
</g>
</svg>
