<svg width="20" height="20" viewBox="0 0 20 20" fill="none" xmlns="http://www.w3.org/2000/svg">
<path fill-rule="evenodd" clip-rule="evenodd" d="M13.333 7.5C12.2279 7.5 11.1681 7.93899 10.3867 8.72039C9.60533 9.50179 9.16634 10.5616 9.16634 11.6667V16.6667H10.833V11.6667C10.833 11.0036 11.0964 10.3677 11.5652 9.8989C12.0341 9.43006 12.67 9.16667 13.333 9.16667C13.996 9.16667 14.6319 9.43006 15.1008 9.8989C15.5696 10.3677 15.833 11.0036 15.833 11.6667V16.6667H17.4997V11.6667C17.4997 10.5616 17.0607 9.50179 16.2793 8.72039C15.4979 7.93899 14.4381 7.5 13.333 7.5ZM13.333 5.83333C11.7859 5.83333 10.3022 6.44791 9.20822 7.54188C8.11426 8.63584 7.49967 10.1196 7.49967 11.6667V17.5C7.49967 17.9602 7.87277 18.3333 8.33301 18.3333H11.6663C12.1266 18.3333 12.4997 17.9602 12.4997 17.5V11.6667C12.4997 11.4457 12.5875 11.2337 12.7438 11.0774C12.9 10.9211 13.112 10.8333 13.333 10.8333C13.554 10.8333 13.766 10.9211 13.9223 11.0774C14.0785 11.2337 14.1663 11.4457 14.1663 11.6667V17.5C14.1663 17.9602 14.5394 18.3333 14.9997 18.3333H18.333C18.7932 18.3333 19.1663 17.9602 19.1663 17.5V11.6667C19.1663 10.1196 18.5518 8.63584 17.4578 7.54188C16.3638 6.44791 14.8801 5.83333 13.333 5.83333Z" fill="black"/>
<path fill-rule="evenodd" clip-rule="evenodd" d="M0.833008 7.5C0.833008 7.03976 1.2061 6.66667 1.66634 6.66667H4.99967C5.45991 6.66667 5.83301 7.03976 5.83301 7.5V17.5C5.83301 17.9602 5.45991 18.3333 4.99967 18.3333H1.66634C1.2061 18.3333 0.833008 17.9602 0.833008 17.5V7.5ZM2.49967 8.33333V16.6667H4.16634V8.33333H2.49967Z" fill="black"/>
<path fill-rule="evenodd" clip-rule="evenodd" d="M3.33301 2.5C2.87277 2.5 2.49967 2.87309 2.49967 3.33333C2.49967 3.79357 2.87277 4.16667 3.33301 4.16667C3.79324 4.16667 4.16634 3.79357 4.16634 3.33333C4.16634 2.87309 3.79324 2.5 3.33301 2.5ZM0.833008 3.33333C0.833008 1.95262 1.9523 0.833332 3.33301 0.833332C4.71372 0.833332 5.83301 1.95262 5.83301 3.33333C5.83301 4.71404 4.71372 5.83333 3.33301 5.83333C1.9523 5.83333 0.833008 4.71404 0.833008 3.33333Z" fill="black"/>
</svg>
