<?xml version="1.0" encoding="utf-8"?>
<!-- Generator: Adobe Illustrator 23.0.6, SVG Export Plug-In . SVG Version: 6.00 Build 0)  -->
<svg version="1.1" id="Layer_1" xmlns="http://www.w3.org/2000/svg" xmlns:xlink="http://www.w3.org/1999/xlink" x="0px" y="0px"
	 viewBox="0 0 23.8 24" style="enable-background:new 0 0 23.8 24;" xml:space="preserve">
<style type="text/css">
	.st0{fill:#E05A32;}
	.st1{fill:#EE7A69;}
	.st2{fill:#FFFFFF;}
	.st3{fill:url(#SVGID_1_);}
</style>
<g>
	<g>
		<path class="st0" d="M0,6.5v15.9C0,23.3,0.7,24,1.6,24h20.6c0.9,0,1.6-0.7,1.6-1.6V8.1c0-0.9-0.7-1.6-1.6-1.6c0,0-19,0-19.8,0
			c-0.6,0-1.9,0-2.3-1"/>
		<path class="st1" d="M19.8,4.3v-3c0-0.9-0.6-1.5-1.4-1.3l-17,1.8C0.1,2.2,0,3.4,0,3.4v0.8"/>
	</g>
	<circle class="st2" cx="17.6" cy="15.6" r="2.2"/>
	
		<linearGradient id="SVGID_1_" gradientUnits="userSpaceOnUse" x1="11.6558" y1="22.9139" x2="11.6558" y2="3.5703" gradientTransform="matrix(1 0 0 -1 0 25.8898)">
		<stop  offset="0" style="stop-color:#FFFFFF;stop-opacity:0.6"/>
		<stop  offset="1" style="stop-color:#FFFFFF;stop-opacity:0.1"/>
	</linearGradient>
	<path class="st3" d="M1.5,6.6v12.1c0,2,1.2,3.6,2.8,3.6h14.8c1.5,0,2.8-1.6,2.8-3.6v-7.3c0-2-1.2-3.6-2.8-3.6h-0.9V6.6
		c0-2-1.2-3.6-2.8-3.6H4.3C2.7,3,1.5,4.6,1.5,6.6z"/>
</g>
</svg>
