<?xml version="1.0" encoding="utf-8"?>
<!-- Generator: Adobe Illustrator 23.0.6, SVG Export Plug-In . SVG Version: 6.00 Build 0)  -->
<svg version="1.1" id="Layer_1" xmlns="http://www.w3.org/2000/svg" xmlns:xlink="http://www.w3.org/1999/xlink" x="0px" y="0px"
	 viewBox="0 0 24 24" style="enable-background:new 0 0 24 24;" xml:space="preserve">
<style type="text/css">
	.st0{fill:#F89C1C;}
	.st1{fill:url(#SVGID_1_);}
</style>
<path class="st0" d="M12,0C5.4,0,0,5.4,0,12s5.4,12,12,12s12-5.4,12-12S18.6,0,12,0z M16.7,16.7c-0.1,0.1-0.3,0.2-0.5,0.2
	c-0.2,0-0.4-0.1-0.5-0.2l-4.2-4.2c-0.1-0.1-0.1-0.2-0.2-0.2c0-0.1-0.1-0.2-0.1-0.3V4.7c0-0.4,0.3-0.8,0.8-0.8s0.8,0.3,0.8,0.8v7
	l3.9,3.9C17,15.9,17,16.4,16.7,16.7z"/>
<linearGradient id="SVGID_1_" gradientUnits="userSpaceOnUse" x1="12" y1="20.8898" x2="12" y2="2.8898" gradientTransform="matrix(1 0 0 -1 0 23.8898)">
	<stop  offset="0" style="stop-color:#FFFFFF;stop-opacity:0.6"/>
	<stop  offset="1" style="stop-color:#FFFFFF;stop-opacity:0.1"/>
</linearGradient>
<circle class="st1" cx="12" cy="12" r="9"/>
</svg>
