<svg width="60" height="66" viewBox="0 0 60 66" fill="none" xmlns="http://www.w3.org/2000/svg">
<g filter="url(#filter0_d)">
<path d="M24.957 29.8845C24.2385 29.8845 23.6226 30.5004 23.6226 31.219C23.6226 31.9376 24.2385 32.5535 24.957 32.5535C25.6756 32.5535 26.2915 31.9376 26.2915 31.219C26.2915 30.3978 25.7782 29.8845 24.957 29.8845Z" fill="#00CDCA"/>
<path d="M34.7091 26.2917C34.7091 25.3678 33.9906 24.7519 33.0667 24.7519H31.9375V21.8777C31.9375 18.0796 28.7553 15 24.9572 15C21.1591 15 17.8742 18.0796 17.8742 21.8777V24.6493H16.6424C16.2318 24.6493 15.8212 24.8546 15.5133 25.1625C15.2053 25.4705 15 25.8811 15 26.2917V31.4243C15 36.5569 19.6193 40.8682 25.1625 40.8682C30.5004 40.8682 34.8118 36.6595 34.8118 31.4243L34.7091 26.2917ZM25.7784 33.8879V36.6595C25.7784 37.0701 25.4705 37.4807 24.9572 37.4807C24.444 37.4807 24.2387 37.1728 24.2387 36.7622V33.9906C23.0068 33.6826 22.1856 32.5534 22.1856 31.219C22.1856 29.6792 23.5201 28.3447 25.0599 28.3447C26.5996 28.3447 27.9341 29.6792 27.9341 31.219C27.8315 32.4508 27.0102 33.58 25.7784 33.8879ZM30.3977 24.6493H19.414V21.8777C19.414 18.9008 21.8777 16.5398 24.8546 16.5398C27.8315 16.5398 30.3977 18.9008 30.3977 21.8777V24.6493Z" fill="#00CDCA"/>
<path d="M32.869 26.2021C32.869 25.4378 32.2953 24.9283 31.5577 24.9283H30.6562V22.5505C30.6562 19.4085 28.1156 16.8608 25.0832 16.8608C22.0509 16.8608 19.4283 19.4085 19.4283 22.5505V24.8434H18.4448C18.117 24.8434 17.7892 25.0132 17.5433 25.268C17.2975 25.5227 17.1335 25.8624 17.1335 26.2021V30.4481C17.1335 34.6942 20.8215 38.2608 25.2471 38.2608C29.5088 38.2608 32.9509 34.7791 32.9509 30.4481L32.869 26.2021ZM25.7389 32.4862V34.7791C25.7389 35.1188 25.493 35.4585 25.0832 35.4585C24.6734 35.4585 24.5095 35.2037 24.5095 34.864V32.5712C23.5261 32.3164 22.8704 31.3823 22.8704 30.2783C22.8704 29.0045 23.9358 27.9005 25.1652 27.9005C26.3945 27.9005 27.4599 29.0045 27.4599 30.2783C27.378 31.2973 26.7223 32.2315 25.7389 32.4862ZM29.4269 24.8434H20.6576V22.5505C20.6576 20.0878 22.6246 18.1346 25.0013 18.1346C27.378 18.1346 29.4269 20.0878 29.4269 22.5505V24.8434Z" fill="url(#paint0_linear)"/>
</g>
<defs>
<filter id="filter0_d" x="0" y="0" width="59.8118" height="65.8682" filterUnits="userSpaceOnUse" color-interpolation-filters="sRGB">
<feFlood flood-opacity="0" result="BackgroundImageFix"/>
<feColorMatrix in="SourceAlpha" type="matrix" values="0 0 0 0 0 0 0 0 0 0 0 0 0 0 0 0 0 0 127 0" result="hardAlpha"/>
<feOffset dx="5" dy="5"/>
<feGaussianBlur stdDeviation="10"/>
<feColorMatrix type="matrix" values="0 0 0 0 0.215686 0 0 0 0 0.301961 0 0 0 0 0.427451 0 0 0 0.2 0"/>
<feBlend mode="normal" in2="BackgroundImageFix" result="effect1_dropShadow"/>
<feBlend mode="normal" in="SourceGraphic" in2="effect1_dropShadow" result="shape"/>
</filter>
<linearGradient id="paint0_linear" x1="25.0422" y1="16.8608" x2="25.0422" y2="38.2608" gradientUnits="userSpaceOnUse">
<stop stop-color="white" stop-opacity="0.6"/>
<stop offset="1" stop-color="white" stop-opacity="0.1"/>
</linearGradient>
</defs>
</svg>
