<svg width="63" height="63" viewBox="0 0 63 63" fill="none" xmlns="http://www.w3.org/2000/svg">
<g filter="url(#filter0_d)">
<g clip-path="url(#clip0)">
<path d="M26.1652 15C20.002 15 15 20.002 15 26.1652C15 32.3284 20.002 37.3304 26.1652 37.3304C32.3284 37.3304 37.3304 32.3284 37.3304 26.1652C37.3304 20.002 32.3284 15 26.1652 15ZM30.542 30.542C30.4527 30.6313 30.274 30.7206 30.0954 30.7206C29.9167 30.7206 29.7381 30.6313 29.6488 30.542L25.7186 26.6118C25.6293 26.5225 25.6293 26.4332 25.54 26.4332C25.54 26.3439 25.4506 26.2545 25.4506 26.1652V19.3768C25.4506 19.0195 25.7186 18.6622 26.1652 18.6622C26.6118 18.6622 26.8798 18.9302 26.8798 19.3768V25.8973L30.542 29.5594C30.8099 29.8274 30.8099 30.274 30.542 30.542Z" fill="#F89C1C"/>
<circle cx="26.1652" cy="26.1652" r="8.37391" fill="url(#paint0_linear)"/>
</g>
</g>
<defs>
<filter id="filter0_d" x="0" y="0" width="62.3304" height="62.3304" filterUnits="userSpaceOnUse" color-interpolation-filters="sRGB">
<feFlood flood-opacity="0" result="BackgroundImageFix"/>
<feColorMatrix in="SourceAlpha" type="matrix" values="0 0 0 0 0 0 0 0 0 0 0 0 0 0 0 0 0 0 127 0" result="hardAlpha"/>
<feOffset dx="5" dy="5"/>
<feGaussianBlur stdDeviation="10"/>
<feColorMatrix type="matrix" values="0 0 0 0 0.215686 0 0 0 0 0.301961 0 0 0 0 0.427451 0 0 0 0.2 0"/>
<feBlend mode="normal" in2="BackgroundImageFix" result="effect1_dropShadow"/>
<feBlend mode="normal" in="SourceGraphic" in2="effect1_dropShadow" result="shape"/>
</filter>
<linearGradient id="paint0_linear" x1="26.1652" y1="17.7913" x2="26.1652" y2="34.5391" gradientUnits="userSpaceOnUse">
<stop stop-color="white" stop-opacity="0.6"/>
<stop offset="1" stop-color="white" stop-opacity="0.1"/>
</linearGradient>
<clipPath id="clip0">
<rect width="22.3304" height="22.3304" fill="white" transform="translate(15 15)"/>
</clipPath>
</defs>
</svg>
