<svg width="20" height="20" viewBox="0 0 20 20" fill="none" xmlns="http://www.w3.org/2000/svg">
<g clip-path="url(#clip0_1735:280)">
<path d="M6.91707 18.25C4.7504 18.25 2.5004 17.6667 0.500403 16.5C0.16707 16.3333 0.000402834 15.9167 0.0837362 15.5833C0.167069 15.25 0.500403 15 0.833736 15C2.2504 15.0833 3.66707 14.75 4.91707 14.1667C1.83374 12.25 1.0004 9.58333 0.917069 7.5C0.833736 5.08333 1.66707 3.08333 1.7504 3C1.83374 2.75 2.08374 2.5 2.41707 2.5C2.7504 2.5 3.0004 2.58333 3.16707 2.83333C4.58374 4.83333 6.7504 6.08333 9.16707 6.25C9.16707 4.91667 9.7504 3.66667 10.7504 2.75C12.5004 1.25 15.0837 1.25 16.8337 2.75C17.5004 2.5 18.1671 2.16667 18.7504 1.75C19.0004 1.58333 19.4171 1.58333 19.6671 1.75C19.9171 1.91667 20.0837 2.33333 20.0004 2.66667C19.7504 3.83333 19.1671 4.91667 18.3337 5.83333C18.3337 6 18.3337 6.08333 18.3337 6.25C18.3337 10.8333 16.3337 14.6667 12.7504 16.6667C11.0004 17.75 9.0004 18.25 6.91707 18.25ZM4.16707 16.25C6.91707 16.9167 9.66707 16.5833 12.0004 15.25C15.0004 13.5 16.7504 10.1667 16.7504 6.25C16.7504 6.08333 16.7504 5.91667 16.6671 5.75C16.5837 5.5 16.6671 5.16667 16.9171 5C17.0837 4.83333 17.2504 4.58333 17.4171 4.41667C17.2504 4.5 17.0004 4.58333 16.8337 4.58333C16.5004 4.66667 16.1671 4.58333 16.0004 4.33333C14.9171 3.16667 13.0837 3 11.9171 4.08333C11.1671 4.58333 10.8337 5.41667 10.8337 6.25V7.08333C10.8337 7.5 10.5004 7.91667 10.0004 7.91667C7.2504 8 4.66707 6.91667 2.83374 5C2.33374 7.16667 2.16707 11.25 7.0004 13.3333C7.2504 13.5 7.5004 13.75 7.5004 14.0833C7.5004 14.4167 7.41707 14.6667 7.16707 14.8333C6.16707 15.5 5.16707 16 4.16707 16.25Z" fill="black"/>
</g>
<defs>
<clipPath id="clip0_1735:280">
<rect width="20" height="20" fill="white"/>
</clipPath>
</defs>
</svg>
