<svg width="20" height="20" viewBox="0 0 20 20" fill="none" xmlns="http://www.w3.org/2000/svg">
<g clip-path="url(#clip0_1735:271)">
<path fill-rule="evenodd" clip-rule="evenodd" d="M10.0004 2.5C10.0004 2.5 10.0005 2.5 10.0005 3.33333L10.0005 4.16667L9.93758 4.16676C9.89589 4.16685 9.83429 4.16704 9.75523 4.16741C9.59711 4.16815 9.36923 4.16963 9.09116 4.17261C8.53469 4.17856 7.77879 4.19046 6.9794 4.21422C6.17867 4.23801 5.34098 4.27351 4.61891 4.32618C3.87882 4.38016 3.32891 4.448 3.05494 4.52016C2.80602 4.59167 2.58013 4.72711 2.39976 4.91305C2.22382 5.09444 2.09723 5.31766 2.03182 5.56146C1.7822 6.95614 1.66013 8.37068 1.66713 9.78755L1.66718 9.7969C1.65825 11.2196 1.7794 12.6401 2.02921 14.0406C2.10139 14.272 2.22925 14.4823 2.40179 14.6531C2.58255 14.832 2.80626 14.9614 3.05142 15.0289C3.32419 15.1014 3.87564 15.1696 4.61891 15.2238C5.34098 15.2765 6.17867 15.312 6.9794 15.3358C7.77879 15.3595 8.53469 15.3714 9.09116 15.3774C9.36923 15.3804 9.5971 15.3819 9.75523 15.3826C9.83429 15.383 9.89589 15.3831 9.93758 15.3832H10.0634C10.1051 15.3831 10.1667 15.383 10.2457 15.3826C10.4038 15.3819 10.6317 15.3804 10.9098 15.3774C11.4663 15.3714 12.2222 15.3595 13.0216 15.3358C13.8223 15.312 14.66 15.2765 15.382 15.2238C16.1221 15.1698 16.672 15.102 16.946 15.0298C17.1949 14.9583 17.4208 14.8229 17.6012 14.6369C17.7771 14.4556 17.9037 14.2323 17.9691 13.9886C18.2168 12.6045 18.3389 11.2008 18.3338 9.79466L18.3338 9.78643C18.3428 8.35881 18.2207 6.9334 17.9691 5.52814C17.9037 5.28433 17.7771 5.06111 17.6012 4.87972C17.4229 4.6959 17.2001 4.56144 16.9546 4.48931C16.6713 4.42267 16.1193 4.36123 15.3873 4.31248C14.6638 4.2643 13.8249 4.23185 13.0237 4.21011C12.2237 4.1884 11.4673 4.17753 10.9106 4.1721C10.6323 4.16938 10.4043 4.16802 10.2461 4.16734L10.0635 4.16675L10.0005 4.16667L10.0005 3.33333C10.0005 2.5 10.0004 2.5 10.0004 2.5L10.0669 2.50009C10.1098 2.50017 10.1727 2.50035 10.2532 2.50069C10.4141 2.50138 10.6452 2.50276 10.9268 2.50551C11.4899 2.51101 12.2564 2.52201 13.0689 2.54406C13.8802 2.56607 14.7434 2.59924 15.498 2.6495C16.2311 2.69832 16.9267 2.76681 17.3648 2.87379C17.3746 2.87617 17.3843 2.87874 17.394 2.88147C17.9274 3.03238 18.4115 3.32139 18.7975 3.71929C19.1835 4.11719 19.4576 4.60991 19.5922 5.14766L18.7838 5.35L19.6039 5.20207C19.8771 6.71684 20.0099 8.2536 20.0005 9.79278C20.0057 11.3089 19.873 12.8224 19.6039 14.3145C19.6006 14.3328 19.5967 14.351 19.5922 14.369C19.4576 14.9068 19.1835 15.3995 18.7975 15.7974C18.4115 16.1953 17.9274 16.4843 17.394 16.6352L17.3824 16.6384C16.9377 16.7573 16.236 16.8326 15.5033 16.8861C14.7472 16.9412 13.8828 16.9776 13.0711 17.0017C12.258 17.0259 11.4909 17.0379 10.9276 17.044C10.6458 17.047 10.4146 17.0485 10.2535 17.0492C10.173 17.0496 10.11 17.0498 10.0671 17.0499L10.0008 17.05L9.9339 17.0499C9.89091 17.0498 9.82793 17.0496 9.74741 17.0492C9.5864 17.0485 9.35516 17.047 9.07333 17.044C8.51001 17.0379 7.743 17.0259 6.92989 17.0017C6.11812 16.9776 5.25372 16.9412 4.49767 16.8861C3.76492 16.8326 3.06322 16.7573 2.61851 16.6384L2.61388 16.6371C2.09132 16.4942 1.61447 16.2188 1.2294 15.8377C0.844334 15.4566 0.564066 14.9826 0.415677 14.4616C0.408145 14.4351 0.401926 14.4083 0.397045 14.3813C0.123845 12.8667 -0.00891149 11.3301 0.000463877 9.79111C-0.00679801 8.26363 0.125948 6.7387 0.397038 5.23544C0.400334 5.21717 0.404239 5.19901 0.408748 5.18099C0.543346 4.64324 0.817472 4.15053 1.20344 3.75262C1.58941 3.35472 2.07354 3.06572 2.60695 2.91481L2.61851 2.91163C3.06322 2.79269 3.76492 2.71737 4.49767 2.66393C5.25372 2.60878 6.11812 2.57241 6.92989 2.54828C7.743 2.52412 8.51001 2.51206 9.07333 2.50604C9.35516 2.50302 9.5864 2.50151 9.74741 2.50076C9.82793 2.50038 9.89091 2.50019 9.9339 2.5001L10.0004 2.5Z" fill="black"/>
<path fill-rule="evenodd" clip-rule="evenodd" d="M7.70631 6.34634C7.96282 6.19713 8.27933 6.19559 8.53728 6.34228L13.3289 9.06728C13.5894 9.21542 13.7503 9.49201 13.7503 9.79167C13.7503 10.0913 13.5894 10.3679 13.3289 10.5161L8.53728 13.2411C8.27933 13.3878 7.96282 13.3862 7.70631 13.237C7.4498 13.0878 7.29199 12.8134 7.29199 12.5167V7.06667C7.29199 6.76992 7.4498 6.49556 7.70631 6.34634ZM8.95866 8.49925V11.0841L11.2313 9.79167L8.95866 8.49925Z" fill="black"/>
</g>
<defs>
<clipPath id="clip0_1735:271">
<rect width="20" height="20" fill="white"/>
</clipPath>
</defs>
</svg>
