<svg width="111" height="77" viewBox="0 0 111 77" fill="none" xmlns="http://www.w3.org/2000/svg">
<path d="M105.217 43.5088C106.291 43.1553 107.244 42.6252 108.079 41.8594C108.854 41.0937 109.51 40.269 109.927 39.2676C110.344 38.2662 110.583 37.2059 110.583 36.0867C110.583 34.9675 110.344 33.9072 109.927 32.9058C109.51 31.9044 108.854 31.0208 108.079 30.314C106.529 28.9002 104.442 28.1934 101.82 28.1934H91.4468V49.1048H96.9312V43.98H98.9581L104.741 49.1048H111L105.217 43.5088ZM104.264 38.2662C103.727 38.8552 102.833 39.0909 101.521 39.0909H96.9312V33.0825H101.521C102.833 33.0825 103.727 33.377 104.264 33.9661C104.8 34.5551 105.098 35.262 105.098 36.1456C105.098 36.9703 104.8 37.6771 104.264 38.2662Z" fill="#00CDCA"/>
<path d="M7.63051 44.3331L17.8244 31.6685V28.252H0.8942V32.9644H10.1343L0 45.6291V49.0456H18.7186V44.3331H7.63051Z" fill="#282828"/>
<path d="M40.6561 38.4429C40.6561 36.499 40.2388 34.7319 39.4043 33.1414C38.5697 31.4921 37.3774 30.1961 35.8275 29.2536C34.2775 28.3112 32.6083 27.781 30.7007 27.781C29.1508 27.781 27.7797 28.0755 26.4682 28.6646C25.1567 29.2536 24.0836 30.0194 23.249 31.0208C22.3548 32.0222 21.6991 33.2003 21.2222 34.4962C20.7453 35.7922 20.5068 37.2059 20.5068 38.6196C20.5068 41.8594 21.5203 44.4513 23.6067 46.454C24.9182 47.75 26.4682 48.5746 28.2566 49.0459C29.27 49.2815 30.343 49.4582 31.4757 49.4582C32.5487 49.4582 33.5622 49.3404 34.5756 49.0459C35.1717 48.8692 35.7082 48.6925 36.3044 48.4568C37.8543 47.8089 39.1062 46.8664 40.1196 45.6883L36.9005 42.5074C36.3044 43.1553 35.5294 43.6855 34.6352 44.1567C33.6814 44.7458 32.668 44.9814 31.5949 44.9814C30.1046 44.9814 28.7931 44.5102 27.72 43.6266C26.647 42.6841 26.0509 41.506 25.872 40.0922H40.5369C40.5965 39.5621 40.6561 39.032 40.6561 38.4429ZM26.1701 35.9689C26.2893 34.9675 26.8258 34.1428 27.6604 33.4359C28.5546 32.7291 29.5681 32.3167 30.7007 32.3167C31.8334 32.3167 32.7872 32.6702 33.5622 33.4359C34.3371 34.1428 34.814 35.0264 34.8736 35.9689H26.1701Z" fill="#282828"/>
<path d="M63.8457 34.1428C63.488 33.0236 62.9515 32.0222 62.1766 31.1386C61.2824 30.0783 60.2093 29.2536 58.9574 28.6646C57.7056 28.0755 56.3344 27.781 54.9037 27.781C52.698 27.781 50.7308 28.4879 48.9424 29.9016V28.2522H43.5176V49.1048H49.1808V35.5565C49.6578 34.9086 50.3731 34.3195 51.2673 33.7894C52.2211 33.2592 53.1749 32.9647 54.3076 32.9647C55.6191 32.9647 56.6921 33.377 57.4671 34.1428C58.3017 34.9675 58.719 36.2634 58.719 38.0895V49.1048H64.3822V38.5018C64.3822 36.7346 64.2034 35.3209 63.8457 34.1428Z" fill="#282828"/>
<path d="M81.9683 28.252V35.8508H74.2186V28.252H68.3765V49.1045H74.2186V41.1523H81.9683V49.0456H87.87V28.252H81.9683Z" fill="#00CDCA"/>
<path d="M72.6361 21.0997C72.6181 21.0923 72.5999 21.0893 72.581 21.0848C72.497 21.065 72.4856 21.1368 72.5532 21.1904C73.0071 21.5505 73.5483 21.8201 74.0395 22.0898C74.5761 22.4432 75.1126 22.7378 75.7087 23.0912C75.8677 23.2034 75.8167 23.4512 75.6263 23.4915L71.7766 24.3067C70.9006 24.4922 70.0197 24.0491 69.5713 23.274C68.5639 21.5324 67.2612 19.8808 65.6937 18.3788C64.4418 17.2006 63.0707 16.1404 61.5207 15.1979C50.1346 8.36483 34.5159 10.721 26.5277 20.4994C25.8881 21.2631 24.4861 20.7309 24.8476 19.8026C25.8532 17.221 27.3074 14.7126 29.2103 12.3704C39.8215 -0.706611 60.8054 -3.88751 76.0068 5.30175C81.1931 8.42373 85.068 12.5471 87.4525 17.2006C87.6857 17.6613 87.5912 18.213 87.2197 18.5716C84.3238 21.3667 80.6458 22.4716 76.1856 22.0309C74.9438 21.914 73.7606 21.5653 72.6361 21.0997Z" fill="#00CDCA"/>
<path d="M38.606 56.6001C38.6214 56.6057 38.6367 56.6079 38.6528 56.6113C38.7376 56.6289 38.7455 56.5621 38.6743 56.5129C38.2226 56.2012 37.686 55.9337 37.1986 55.6661C36.6621 55.3716 36.066 55.0182 35.5295 54.7236C35.3798 54.6391 35.4107 54.415 35.5777 54.3742L39.5236 53.4095C40.3284 53.2127 41.1563 53.5963 41.5909 54.3017C42.6535 56.026 44.0217 57.651 45.6637 59.0826C46.9156 60.2018 48.3463 61.2032 49.8963 62.0868C61.342 68.5664 76.7223 65.8568 84.2932 56.0196C84.8498 55.2945 86.2622 55.7857 85.9613 56.6489C85.0618 59.2295 83.7215 61.7343 81.9086 64.0896C71.834 77.2255 51.2078 80.8777 35.8872 72.2186C30.6412 69.2733 26.7067 65.2677 24.2029 60.732C23.9791 60.2896 23.9975 59.7775 24.3464 59.4252C27.132 56.6115 30.7043 55.3942 35.1122 55.725C36.3554 55.842 37.4811 56.1914 38.606 56.6001Z" fill="#00CDCA"/>
</svg>
