<svg width="111" height="22" viewBox="0 0 111 22" fill="none" xmlns="http://www.w3.org/2000/svg">
<path d="M104.311 15.8618C105.399 15.535 106.323 14.9903 107.139 14.2278C107.901 13.4652 108.553 12.5937 108.988 11.6133C109.423 10.6328 109.641 9.54346 109.641 8.45409C109.641 7.31025 109.423 6.27535 108.988 5.29492C108.553 4.31448 107.955 3.44299 107.139 2.68043C105.616 1.26424 103.55 0.556152 100.939 0.556152H90.6061V21.5265H96.0446V16.352H98.0569L103.822 21.5265H110.022L104.311 15.8618ZM103.387 10.5784C102.843 11.123 101.918 11.4499 100.667 11.4499H96.099V5.34938H100.667C101.918 5.34938 102.843 5.62173 103.387 6.22088C103.931 6.82003 104.202 7.52813 104.202 8.39962C104.202 9.27112 103.931 9.97921 103.387 10.5784Z" fill="#00CDCA"/>
<path d="M7.55957 16.6789L17.6753 3.93323V0.501709H0.870167V5.24047H10.0069L0 17.9316V21.3632H18.5454V16.6244H7.55957V16.6789Z" fill="#282828"/>
<path d="M40.2996 10.7418C40.2996 8.83538 39.8645 7.03792 39.0487 5.40386C38.233 3.7698 37.0365 2.46256 35.5137 1.48213C33.9909 0.501692 32.3049 0.0114746 30.4015 0.0114746C28.8787 0.0114746 27.4646 0.283816 26.2138 0.88297C24.9085 1.48212 23.8752 2.24468 23.005 3.27959C22.1349 4.26002 21.4822 5.45833 20.9928 6.76557C20.5033 8.07282 20.2858 9.489 20.2858 10.9052C20.2858 14.1188 21.3191 16.7333 23.3857 18.7487C24.691 20.0559 26.2682 20.9274 28.0085 21.3631C28.9874 21.6355 30.0751 21.7444 31.2172 21.7444C32.2506 21.7444 33.2839 21.6355 34.2628 21.3631C34.8611 21.1997 35.4049 21.0363 35.9488 20.764C37.4716 20.1104 38.7224 19.1844 39.7557 17.9861L36.6014 14.8269C36.0032 15.4805 35.2418 16.0252 34.3172 16.5154C33.3927 17.0057 32.4137 17.2235 31.326 17.2235C29.8576 17.2235 28.5524 16.7878 27.519 15.8618C26.4313 14.9359 25.8331 13.7375 25.7243 12.2669H40.1908C40.2452 11.8856 40.2996 11.3409 40.2996 10.7418ZM25.9419 8.23622C26.0506 7.25579 26.5401 6.38429 27.4103 5.6762C28.2804 4.96811 29.2594 4.58683 30.4015 4.58683C31.4892 4.58683 32.4681 4.96811 33.2295 5.6762C33.9909 6.43876 34.426 7.25579 34.5347 8.23622H25.9419Z" fill="#282828"/>
<path d="M63.3047 6.43871C62.924 5.29487 62.3802 4.25997 61.6732 3.44294C60.803 2.40804 59.7153 1.59101 58.4644 0.991857C57.2136 0.392703 55.8539 0.120361 54.4399 0.120361C52.2645 0.120361 50.3066 0.828451 48.5663 2.24463V0.556109H43.1821V21.472H48.7838V7.85489C49.2733 7.20127 49.9803 6.60212 50.8505 6.05743C51.775 5.51274 52.754 5.2404 53.8417 5.2404C55.1469 5.2404 56.1802 5.62168 56.996 6.38424C57.8118 7.20127 58.2469 8.50852 58.2469 10.306V21.3631H63.8486V10.7417C63.7942 8.99873 63.6311 7.58255 63.3047 6.43871Z" fill="#282828"/>
<path d="M81.2518 0.501709V8.12731H73.5291V0.501709H67.7098V21.4176H73.5291V13.4652H81.2518V21.4176H87.071V0.501709H81.2518Z" fill="#00CDCA"/>
</svg>
